# xmcd
#
# Track frame offsets:
#	150
#	16298
#	29888
#	44472
#	56998
#	69528
#	83197
#	96732
#	111240
#	123570
#	134173
#	147283
#	158466
#	170666
#	182132
#	192868
#	205840
#	218091
#	228430
#	242426
#	254988
#	268896
#	279526
#
# Disc length: 3910 seconds
#
# Revision: 1
# Processed by: cddbd v1.5.2PL0 Copyright (c) Steve Scherf et al.
# Submitted via: audiograbber 1.82.02
#
DISCID=720f4417
DTITLE=Ray Price - Touch My Heart/Burning Memories
DYEAR=2003
DGENRE=Country
TTITLE0=Touch My Heart
TTITLE1=There Goes My Everything
TTITLE2=It's Only Love
TTITLE3=I Lie A Lot
TTITLE4=You Took My Happy Away
TTITLE5=Swinging Doors
TTITLE6=A Way To Survive
TTITLE7=The Same Two Lips
TTITLE8=Enough To Lie
TTITLE9=Am I That Easy To Forget
TTITLE10=Just For The Record
TTITLE11=Burning Memories
TTITLE12=Here Comes My Baby Back Again
TTITLE13=Make The World Go Away
TTITLE14=Are You Sure
TTITLE15=Soft Rain
TTITLE16=Release Me
TTITLE17=Together Again
TTITLE18=You Took Her Off My Hands
TTITLE19=A Thing Called Sadness
TTITLE20=Walk Me To The Door
TTITLE21=That's All That Matters
TTITLE22=Let Me Talk To You
EXTD=
EXTT0=
EXTT1=
EXTT2=
EXTT3=
EXTT4=
EXTT5=
EXTT6=
EXTT7=
EXTT8=
EXTT9=
EXTT10=
EXTT11=
EXTT12=
EXTT13=
EXTT14=
EXTT15=
EXTT16=
EXTT17=
EXTT18=
EXTT19=
EXTT20=
EXTT21=
EXTT22=
PLAYORDER=
